<svg width="846" height="610" viewBox="0 0 846 610" fill="none" xmlns="http://www.w3.org/2000/svg">
<path d="M585.857 132.637C589.901 134.593 591.542 139.495 589.491 143.492L428.478 457.188C425.6 462.794 417.671 463.027 414.47 457.598L249.952 178.593C248.211 175.982 242.716 165.184 232.274 161.704C229.088 160.762 226.796 159.817 225.249 158.88C218.418 155.211 213.774 148 213.774 139.704C213.774 127.689 223.514 117.949 235.529 117.949C247.049 117.949 256.476 127.367 257.233 138.29C257.422 140.362 258.79 144.525 262.532 145.132C263.021 145.212 263.528 145.177 264.008 145.056C269.42 143.695 267.311 137.549 267.192 137.214C266.601 135.83 266.274 134.304 266.274 132.704C266.274 126.353 271.423 121.204 277.774 121.204C282.224 121.204 286.082 123.864 287.994 127.549C288.102 127.713 288.208 127.903 288.308 128.123C290.101 132.074 379.798 287.192 414.568 353.099C417.64 358.922 426.056 358.829 429.013 352.946L545.236 121.742C547.198 117.838 551.932 116.231 555.866 118.133L585.857 132.637ZM267.064 65.8823C280.404 65.8823 291.218 76.6968 291.218 90.0366C291.218 103.376 280.404 114.19 267.064 114.19C253.724 114.19 242.911 103.376 242.911 90.0366C242.911 76.6969 253.724 65.8825 267.064 65.8823ZM213.994 68.2739C223.695 68.2739 231.561 76.1386 231.561 85.8403C231.561 95.5421 223.695 103.407 213.994 103.407C204.292 103.406 196.427 95.5419 196.427 85.8403C196.427 76.1388 204.292 68.2742 213.994 68.2739ZM253.519 39.728C259.583 39.7281 264.498 44.8897 264.498 51.2563C264.498 57.623 259.583 62.7846 253.519 62.7847C247.455 62.7847 242.54 57.6231 242.54 51.2563C242.54 44.8896 247.455 39.728 253.519 39.728ZM179.959 41.9243C184.204 41.9245 187.644 45.3655 187.644 49.6099C187.644 53.854 184.204 57.2942 179.959 57.2944C175.715 57.2944 172.274 53.8542 172.274 49.6099C172.274 45.3654 175.715 41.9243 179.959 41.9243ZM211.798 3.49756C220.894 3.49765 228.267 10.871 228.267 19.9663C228.267 29.0614 220.893 36.434 211.798 36.4341C202.703 36.4341 195.33 29.0615 195.33 19.9663C195.33 10.8709 202.703 3.49756 211.798 3.49756ZM250.225 0.203613C254.47 0.203613 257.911 3.64466 257.911 7.88916C257.911 12.1336 254.47 15.5747 250.225 15.5747C245.981 15.5747 242.54 12.1336 242.54 7.88916C242.54 3.64467 245.981 0.203635 250.225 0.203613Z" fill="url(#paint0_linear_36_3)"/>
<path d="M439.387 332.135C375.26 407.935 354.871 339.283 336.946 326.118L412.383 454.127C420.198 468.704 425.379 463.753 430.07 454.127L481.597 353.724L439.387 332.135Z" fill="url(#paint1_linear_36_3)"/>
<path d="M443.122 117.65C461.54 105.734 481.939 99.5926 504.318 99.2256C526.545 98.3842 549.093 103.849 571.959 115.621C575.718 117.556 579.709 119.809 583.933 122.38C586.076 123.7 588.288 125.116 590.57 126.626C593.914 128.84 594.994 133.225 593.159 136.79L514.475 289.633C512.247 293.961 514.366 299.296 519.101 300.428C527.726 302.49 536.104 303.098 544.236 302.252C554.97 300.645 564.706 296.741 573.446 290.541C582.185 284.342 589.377 275.76 595.021 264.797C599.291 256.502 602.21 243.024 603.786 234.195L596.391 234.59C590.242 234.917 586.044 228.464 588.835 222.974L620.915 159.89C623.706 154.401 631.394 153.992 634.752 159.154L673.344 218.479C676.702 223.641 673.213 230.502 667.064 230.829L657.962 231.313C657.03 250.91 651.711 270.133 642.007 288.984C629.912 312.478 614.101 330.491 594.572 343.024C575.205 355.244 553.701 361.609 530.06 362.119C506.58 362.315 482.779 356.206 458.66 343.789C435.793 332.017 417.931 316.679 405.075 297.777C392.22 278.875 385.058 258.149 383.59 235.599C382.122 213.05 387.032 190.812 398.32 168.885C409.769 146.644 424.703 129.566 443.122 117.65ZM516.681 161.169C509.245 158.772 501.661 157.936 493.928 158.665C483.517 159.645 474.022 163.079 465.444 168.966C456.553 174.691 449.527 182.566 444.367 192.589C439.852 201.36 437.771 210.79 438.125 220.879C438.479 230.967 441.12 240.847 446.049 250.517C449.531 257.22 454.276 263.31 460.284 268.787C463.902 272.085 469.527 270.721 471.768 266.369L520.57 171.568C522.639 167.55 520.982 162.557 516.681 161.169Z" fill="url(#paint2_linear_36_3)"/>
<path d="M774.631 609.796C773.526 609.796 772.631 608.901 772.631 607.796V504.891C772.631 503.787 773.526 502.891 774.631 502.891H843.128C844.232 502.891 845.128 503.787 845.128 504.891V513.854C845.128 514.959 844.232 515.854 843.128 515.854H789.674C788.57 515.854 787.674 516.75 787.674 517.854V546.342C787.674 547.446 788.57 548.342 789.674 548.342H828.084C829.189 548.342 830.084 549.237 830.084 550.342V559.305C830.084 560.409 829.189 561.305 828.084 561.305H789.674C788.57 561.305 787.674 562.2 787.674 563.305V594.833C787.674 595.938 788.57 596.833 789.674 596.833H843.128C844.232 596.833 845.128 597.729 845.128 598.833V607.796C845.128 608.901 844.232 609.796 843.128 609.796H774.631Z" fill="#44277C"/>
<path d="M563.633 609.796C562.529 609.796 561.633 608.901 561.633 607.796V504.891C561.633 503.787 562.529 502.891 563.633 502.891H590.76C599.296 502.891 607.084 503.798 614.126 505.612C621.274 507.319 627.462 510.2 632.69 514.254C637.918 518.308 641.972 523.803 644.853 530.738C647.734 537.566 649.174 546.048 649.174 556.184C649.174 566.426 647.734 575.015 644.853 581.95C641.972 588.778 637.918 594.273 632.69 598.434C627.462 602.488 621.274 605.422 614.126 607.236C607.084 608.943 599.296 609.796 590.76 609.796H563.633ZM576.677 595.153C576.677 596.258 577.572 597.153 578.677 597.153H590.44C595.988 597.153 601.323 596.727 606.444 595.873C611.672 594.913 616.313 593.099 620.367 590.432C624.528 587.658 627.782 583.55 630.129 578.109C632.583 572.561 633.81 565.252 633.81 556.184C633.81 547.115 632.583 539.913 630.129 534.579C627.782 529.137 624.528 525.083 620.367 522.416C616.313 519.642 611.672 517.828 606.444 516.974C601.323 516.014 595.988 515.534 590.44 515.534H578.677C577.572 515.534 576.677 516.43 576.677 517.534V595.153Z" fill="#44277C"/>
<path d="M474.136 609.796C473.032 609.796 472.136 608.901 472.136 607.796V504.891C472.136 503.787 473.032 502.891 474.136 502.891H542.633C543.738 502.891 544.633 503.787 544.633 504.891V513.854C544.633 514.959 543.738 515.854 542.633 515.854H489.18C488.075 515.854 487.18 516.75 487.18 517.854V546.342C487.18 547.446 488.075 548.342 489.18 548.342H527.59C528.694 548.342 529.59 549.237 529.59 550.342V559.305C529.59 560.409 528.694 561.305 527.59 561.305H489.18C488.075 561.305 487.18 562.2 487.18 563.305V594.833C487.18 595.938 488.075 596.833 489.18 596.833H542.633C543.738 596.833 544.633 597.729 544.633 598.833V607.796C544.633 608.901 543.738 609.796 542.633 609.796H474.136Z" fill="#44277C"/>
<path d="M305.819 609.796C304.714 609.796 303.819 608.901 303.819 607.796V504.891C303.819 503.787 304.714 502.891 305.819 502.891H327.333C328.199 502.891 328.966 503.448 329.234 504.271L355.37 584.439C355.97 586.279 358.573 586.279 359.173 584.439L385.308 504.271C385.576 503.448 386.344 502.891 387.209 502.891H408.724C409.828 502.891 410.724 503.787 410.724 504.891V607.796C410.724 608.901 409.828 609.796 408.724 609.796H397.68C396.576 609.796 395.68 608.901 395.68 607.796V530.718C395.68 528.454 392.512 527.932 391.786 530.076L365.253 608.438C364.978 609.25 364.216 609.796 363.359 609.796H351.341C350.485 609.796 349.724 609.251 349.448 608.441L322.755 530.014C322.027 527.873 318.862 528.397 318.862 530.658V607.796C318.862 608.901 317.967 609.796 316.862 609.796H305.819Z" fill="#44277C"/>
<path d="M240.31 609.796C230.422 609.796 221.874 607.53 214.665 602.999C207.455 598.364 201.842 592.03 197.826 583.997C193.912 575.861 191.955 566.591 191.955 556.189C191.955 545.787 193.912 536.621 197.826 528.69C201.842 520.657 207.455 514.375 214.665 509.843C221.874 505.208 230.422 502.891 240.31 502.891C250.3 502.891 258.9 505.208 266.109 509.843C273.318 514.375 278.88 520.657 282.794 528.69C286.81 536.621 288.819 545.787 288.819 556.189C288.819 566.591 286.81 575.861 282.794 583.997C278.88 592.03 273.318 598.364 266.109 602.999C258.9 607.53 250.3 609.796 240.31 609.796ZM240.31 597.592C246.592 597.592 252.257 595.995 257.303 592.803C262.453 589.61 266.521 584.975 269.508 578.899C272.494 572.719 273.988 565.149 273.988 556.189C273.988 547.332 272.494 539.865 269.508 533.789C266.521 527.609 262.453 522.974 257.303 519.885C252.257 516.692 246.592 515.096 240.31 515.096C234.13 515.096 228.466 516.692 223.316 519.885C218.269 522.974 214.253 527.609 211.266 533.789C208.279 539.865 206.786 547.332 206.786 556.189C206.786 565.149 208.279 572.719 211.266 578.899C214.253 584.975 218.269 589.61 223.316 592.803C228.466 595.995 234.13 597.592 240.31 597.592Z" fill="#44277C"/>
<path d="M142.503 609.796C141.398 609.796 140.503 608.901 140.503 607.796V568.892C140.503 568.535 140.407 568.184 140.226 567.877L103.71 505.906C102.925 504.573 103.886 502.891 105.433 502.891H117.258C117.975 502.891 118.637 503.275 118.994 503.897L146.284 551.545C147.054 552.888 148.991 552.886 149.758 551.541L176.896 503.901C177.252 503.277 177.915 502.891 178.634 502.891H190.463C192.009 502.891 192.97 504.57 192.188 505.903L155.821 567.878C155.641 568.185 155.546 568.534 155.546 568.89V607.796C155.546 608.901 154.651 609.796 153.546 609.796H142.503Z" fill="#44277C"/>
<path d="M38.9496 609.796C38.095 609.796 37.3348 609.253 37.0576 608.445L1.78029 505.54C1.33527 504.242 2.29992 502.891 3.6722 502.891H15.9024C16.7692 502.891 17.5373 503.449 17.8048 504.274L44.4258 586.343C45.0234 588.186 47.6291 588.188 48.2297 586.346L74.9998 504.271C75.2682 503.448 76.0356 502.891 76.9012 502.891H89.1299C90.5033 502.891 91.4681 504.244 91.0209 505.542L55.5895 608.447C55.3116 609.254 54.5521 609.796 53.6985 609.796H38.9496Z" fill="#44277C"/>
<path d="M710.829 609.796C700.942 609.796 692.497 607.53 685.493 602.999C678.593 598.364 673.289 592.03 669.581 583.997C665.976 575.964 664.174 566.694 664.174 556.189C664.174 545.478 666.131 536.157 670.044 528.227C674.061 520.194 679.674 513.963 686.883 509.534C694.093 505.105 702.538 502.891 712.219 502.891C720.871 502.891 728.647 504.899 735.547 508.916C741.926 512.575 746.895 517.686 750.454 524.249C751.018 525.289 750.493 526.568 749.38 526.97L740.325 530.243C739.365 530.59 738.304 530.153 737.796 529.268C735.55 525.354 732.38 522.123 728.286 519.576C723.754 516.589 718.141 515.096 711.447 515.096C705.37 515.096 699.86 516.64 694.917 519.73C690.076 522.82 686.214 527.455 683.33 533.634C680.447 539.711 679.005 547.229 679.005 556.189C679.005 564.841 680.344 572.256 683.021 578.435C685.802 584.615 689.613 589.352 694.453 592.648C699.397 595.944 705.061 597.592 711.447 597.592C714.846 597.592 718.347 597.18 721.952 596.356C725.557 595.532 728.852 594.142 731.839 592.185C734.826 590.125 738.791 586.235 740.645 582.733C742.464 579.297 743.106 575.023 743.129 569.803C743.13 569.607 743.159 569.41 743.216 569.222L743.462 568.41C743.862 567.09 742.837 565.771 741.459 565.832L713.845 567.065C712.707 567.115 711.756 566.206 711.756 565.067V556.644C711.756 555.54 712.651 554.644 713.756 554.644H752.935C754.277 554.644 755.238 555.94 754.85 557.224L743.503 594.709C743.452 594.879 743.378 595.042 743.282 595.192C739.999 600.328 735.515 604.063 729.831 606.398C724.166 608.663 717.832 609.796 710.829 609.796Z" fill="#44277C"/>
<rect x="700.44" y="554.608" width="55.19" height="12.5225" rx="2" fill="#6C3BCC"/>
<rect x="743.106" y="609.796" width="55.1887" height="12.5225" rx="2" transform="rotate(-90 743.106 609.796)" fill="#6C3BCC"/>
<defs>
<linearGradient id="paint0_linear_36_3" x1="382.753" y1="0.203613" x2="382.753" y2="470.108" gradientUnits="userSpaceOnUse">
<stop stop-color="#4CFFE7"/>
<stop offset="1" stop-color="#7600C4"/>
</linearGradient>
<linearGradient id="paint1_linear_36_3" x1="409.271" y1="370.436" x2="411.711" y2="466.367" gradientUnits="userSpaceOnUse">
<stop stop-color="#D300E5"/>
<stop offset="1" stop-color="#24FFE1"/>
</linearGradient>
<linearGradient id="paint2_linear_36_3" x1="586.63" y1="100.956" x2="457.807" y2="357.012" gradientUnits="userSpaceOnUse">
<stop stop-color="#EC2FFF"/>
<stop offset="1" stop-color="#23FFE1"/>
</linearGradient>
</defs>
</svg>
